<mxfile host="app.diagrams.net" agent="Mozilla/5.0 (Windows NT 10.0; Win64; x64) AppleWebKit/537.36 (KHTML, like Gecko) Chrome/139.0.0.0 Safari/537.36" version="28.1.2">
  <diagram name="페이지-1" id="QumppMxBuDIJF9WYlX5x">
    <mxGraphModel dx="1639" dy="844" grid="1" gridSize="10" guides="1" tooltips="1" connect="1" arrows="1" fold="1" page="1" pageScale="1" pageWidth="827" pageHeight="1169" math="0" shadow="0">
      <root>
        <mxCell id="0" />
        <mxCell id="1" parent="0" />
        <mxCell id="dHQ4IcVrl74NJ2XIwOVk-20" value="" style="rounded=0;whiteSpace=wrap;html=1;" parent="1" vertex="1">
          <mxGeometry x="98" y="61" width="720" height="709" as="geometry" />
        </mxCell>
        <mxCell id="dHQ4IcVrl74NJ2XIwOVk-5" style="edgeStyle=orthogonalEdgeStyle;rounded=0;orthogonalLoop=1;jettySize=auto;html=1;exitX=0.5;exitY=1;exitDx=0;exitDy=0;" parent="1" source="dHQ4IcVrl74NJ2XIwOVk-2" target="dHQ4IcVrl74NJ2XIwOVk-4" edge="1">
          <mxGeometry relative="1" as="geometry" />
        </mxCell>
        <mxCell id="dHQ4IcVrl74NJ2XIwOVk-2" value="&amp;nbsp; &amp;nbsp;Between January 2006 and December 2023&lt;div&gt;&amp;nbsp; &amp;nbsp; &amp;nbsp; &amp;nbsp;880 TOF MRA were eligible for study inclusion&lt;/div&gt;&lt;div&gt;&amp;nbsp; &amp;nbsp; &amp;nbsp; &amp;nbsp;(IRB No. 4-2022-0261, 4-2024-0336)&lt;/div&gt;" style="rounded=0;whiteSpace=wrap;html=1;align=left;" parent="1" vertex="1">
          <mxGeometry x="116" y="82" width="284" height="58" as="geometry" />
        </mxCell>
        <mxCell id="dHQ4IcVrl74NJ2XIwOVk-16" style="edgeStyle=orthogonalEdgeStyle;rounded=0;orthogonalLoop=1;jettySize=auto;html=1;exitX=0.5;exitY=1;exitDx=0;exitDy=0;entryX=0.5;entryY=0;entryDx=0;entryDy=0;" parent="1" source="dHQ4IcVrl74NJ2XIwOVk-3" target="dHQ4IcVrl74NJ2XIwOVk-9" edge="1">
          <mxGeometry relative="1" as="geometry" />
        </mxCell>
        <mxCell id="dHQ4IcVrl74NJ2XIwOVk-3" value="&amp;nbsp; &amp;nbsp;Between January 2017 and December 2021&lt;div&gt;&amp;nbsp; &amp;nbsp; &amp;nbsp; &amp;nbsp;200 TOF MRA were eligible for study inclusion&lt;/div&gt;&lt;div&gt;&amp;nbsp; &amp;nbsp; &amp;nbsp; &amp;nbsp;(IRB No. 4-2024-1015)&lt;/div&gt;" style="rounded=0;whiteSpace=wrap;html=1;align=left;" parent="1" vertex="1">
          <mxGeometry x="510" y="82" width="284" height="58" as="geometry" />
        </mxCell>
        <mxCell id="dHQ4IcVrl74NJ2XIwOVk-13" style="edgeStyle=orthogonalEdgeStyle;rounded=0;orthogonalLoop=1;jettySize=auto;html=1;exitX=0.5;exitY=1;exitDx=0;exitDy=0;" parent="1" source="dHQ4IcVrl74NJ2XIwOVk-4" target="dHQ4IcVrl74NJ2XIwOVk-10" edge="1">
          <mxGeometry relative="1" as="geometry" />
        </mxCell>
        <mxCell id="dHQ4IcVrl74NJ2XIwOVk-4" value="855 TOF MRAs&lt;div&gt;79 without aneurysm, 776 with aneurysm&lt;/div&gt;" style="rounded=0;whiteSpace=wrap;html=1;align=center;" parent="1" vertex="1">
          <mxGeometry x="136" y="370" width="244" height="50" as="geometry" />
        </mxCell>
        <mxCell id="dHQ4IcVrl74NJ2XIwOVk-6" value="&lt;div style=&quot;&quot;&gt;&lt;span style=&quot;background-color: transparent; color: light-dark(rgb(0, 0, 0), rgb(255, 255, 255));&quot;&gt;&amp;nbsp; &amp;nbsp;25 cases were excluded for the following reasons&lt;/span&gt;&lt;/div&gt;&lt;div style=&quot;&quot;&gt;&lt;span style=&quot;background-color: transparent; color: light-dark(rgb(0, 0, 0), rgb(255, 255, 255));&quot;&gt;&lt;br&gt;&lt;/span&gt;&lt;/div&gt;&lt;div style=&quot;&quot;&gt;&lt;span style=&quot;background-color: transparent; color: light-dark(rgb(0, 0, 0), rgb(255, 255, 255));&quot;&gt;&amp;nbsp; &amp;nbsp;1) Non-saccular aneurysm (n=1)&lt;/span&gt;&lt;/div&gt;&lt;div style=&quot;&quot;&gt;&lt;span style=&quot;background-color: transparent; color: light-dark(rgb(0, 0, 0), rgb(255, 255, 255));&quot;&gt;&amp;nbsp; &amp;nbsp;2) Presence of brain lesions potentially affecting&amp;nbsp;&lt;/span&gt;&lt;/div&gt;&lt;div style=&quot;&quot;&gt;&lt;span style=&quot;background-color: transparent; color: light-dark(rgb(0, 0, 0), rgb(255, 255, 255));&quot;&gt;&amp;nbsp; &amp;nbsp; &amp;nbsp; &amp;nbsp; brain lesions, or altered brain structure (n=15)&lt;/span&gt;&lt;/div&gt;&lt;div style=&quot;&quot;&gt;&lt;span style=&quot;background-color: transparent; color: light-dark(rgb(0, 0, 0), rgb(255, 255, 255));&quot;&gt;&amp;nbsp; &amp;nbsp;3) Artifacts affecting image quality (n=1)&lt;/span&gt;&lt;/div&gt;&lt;div style=&quot;&quot;&gt;&lt;span style=&quot;background-color: transparent; color: light-dark(rgb(0, 0, 0), rgb(255, 255, 255));&quot;&gt;&amp;nbsp; &amp;nbsp;4) Cases deemed by the investigator to be difficult&amp;nbsp;&lt;/span&gt;&lt;/div&gt;&lt;div style=&quot;&quot;&gt;&lt;span style=&quot;background-color: transparent; color: light-dark(rgb(0, 0, 0), rgb(255, 255, 255));&quot;&gt;&amp;nbsp; &amp;nbsp; &amp;nbsp; &amp;nbsp; to register in this study (n=8)&lt;/span&gt;&lt;/div&gt;" style="rounded=0;whiteSpace=wrap;html=1;align=left;" parent="1" vertex="1">
          <mxGeometry x="290" y="180" width="288" height="140" as="geometry" />
        </mxCell>
        <mxCell id="dHQ4IcVrl74NJ2XIwOVk-8" value="" style="endArrow=classic;html=1;rounded=0;" parent="1" edge="1">
          <mxGeometry width="50" height="50" relative="1" as="geometry">
            <mxPoint x="258" y="250" as="sourcePoint" />
            <mxPoint x="290" y="250" as="targetPoint" />
          </mxGeometry>
        </mxCell>
        <mxCell id="dHQ4IcVrl74NJ2XIwOVk-14" style="edgeStyle=orthogonalEdgeStyle;rounded=0;orthogonalLoop=1;jettySize=auto;html=1;exitX=0.5;exitY=1;exitDx=0;exitDy=0;entryX=0.5;entryY=0;entryDx=0;entryDy=0;" parent="1" source="dHQ4IcVrl74NJ2XIwOVk-9" target="dHQ4IcVrl74NJ2XIwOVk-10" edge="1">
          <mxGeometry relative="1" as="geometry" />
        </mxCell>
        <mxCell id="dHQ4IcVrl74NJ2XIwOVk-9" value="200 TOF MRAs&lt;div&gt;20 without aneurysm, 180 with aneurysm&lt;/div&gt;" style="rounded=0;whiteSpace=wrap;html=1;align=center;" parent="1" vertex="1">
          <mxGeometry x="530" y="370" width="244" height="50" as="geometry" />
        </mxCell>
        <mxCell id="dHQ4IcVrl74NJ2XIwOVk-12" style="edgeStyle=orthogonalEdgeStyle;rounded=0;orthogonalLoop=1;jettySize=auto;html=1;exitX=0.5;exitY=1;exitDx=0;exitDy=0;entryX=0.5;entryY=0;entryDx=0;entryDy=0;" parent="1" source="dHQ4IcVrl74NJ2XIwOVk-10" target="dHQ4IcVrl74NJ2XIwOVk-11" edge="1">
          <mxGeometry relative="1" as="geometry" />
        </mxCell>
        <mxCell id="dHQ4IcVrl74NJ2XIwOVk-10" value="1055 TOF MRAs&lt;div&gt;99 without aneurysm, 956 with aneurysm&lt;/div&gt;" style="rounded=0;whiteSpace=wrap;html=1;align=center;" parent="1" vertex="1">
          <mxGeometry x="340" y="470" width="244" height="50" as="geometry" />
        </mxCell>
        <mxCell id="dHQ4IcVrl74NJ2XIwOVk-11" value="1055 TOF MRAs&lt;div&gt;99 without aneurysm, 956 with aneurysm&lt;/div&gt;&lt;div&gt;31605 patches&lt;/div&gt;" style="rounded=0;whiteSpace=wrap;html=1;align=center;" parent="1" vertex="1">
          <mxGeometry x="340" y="690" width="244" height="60" as="geometry" />
        </mxCell>
        <mxCell id="dHQ4IcVrl74NJ2XIwOVk-18" value="&lt;div style=&quot;&quot;&gt;&amp;nbsp; &amp;nbsp;Patch exclusion&lt;/div&gt;&lt;div style=&quot;&quot;&gt;&amp;nbsp; &amp;nbsp;1) Aneurysms with artifacts (n=45)&lt;/div&gt;&lt;div style=&quot;&quot;&gt;&amp;nbsp; &amp;nbsp;&lt;/div&gt;&lt;div style=&quot;&quot;&gt;&amp;nbsp; &amp;nbsp;- Treated aneurysms marked with&amp;nbsp;&lt;/div&gt;&lt;div style=&quot;&quot;&gt;&amp;nbsp; &amp;nbsp; &amp;nbsp;values larger than 100&lt;/div&gt;" style="rounded=0;whiteSpace=wrap;html=1;align=left;" parent="1" vertex="1">
          <mxGeometry x="494" y="550" width="210" height="100" as="geometry" />
        </mxCell>
        <mxCell id="dHQ4IcVrl74NJ2XIwOVk-19" value="" style="endArrow=classic;html=1;rounded=0;" parent="1" edge="1">
          <mxGeometry width="50" height="50" relative="1" as="geometry">
            <mxPoint x="462" y="599.8" as="sourcePoint" />
            <mxPoint x="494" y="599.8" as="targetPoint" />
          </mxGeometry>
        </mxCell>
      </root>
    </mxGraphModel>
  </diagram>
</mxfile>
